<svg height="50" viewBox="0 0 511 511.9999" width="50" xmlns="http://www.w3.org/2000/svg"><path d="m428.667969 220.660156c-18.578125-2.132812-33-17.902344-33-37.050781 0-19.140625 14.421875-34.921875 33-37.054687 2.4375-.28125 4.300781-2.300782 4.304687-4.753907l.003906-15.066406c0-12.089844-9.890624-21.980469-21.980468-21.980469h-15.128906c-2.453126 0-4.472657 1.859375-4.753907 4.296875-2.15625 18.550781-17.925781 32.949219-37.050781 32.949219-19.121094 0-34.894531-14.398438-37.046875-32.949219-.285156-2.4375-2.304687-4.296875-4.757813-4.296875h-15.125c-12.089843 0-21.984374 9.890625-21.984374 21.980469 0-12.089844-9.894532-21.980469-21.992188-21.980469l-15.871094-.039062c-2.03125-.007813-3.734375-1.542969-3.925781-3.5625-1.789063-18.933594-17.730469-33.746094-37.128906-33.746094-19.402344 0-35.34375 14.8125-37.132813 33.746094-.1875 2.019531-1.894531 3.554687-3.921875 3.5625l-15.875.039062c-12.089843 0-21.984375 9.890625-21.984375 21.980469v15.8125c0 2.03125-1.539062 3.742187-3.558594 3.933594-18.925781 1.792969-33.734374 17.730469-33.734374 37.128906 0 19.394531 14.804687 35.332031 33.734374 37.128906 2.019532.191407 3.558594 1.902344 3.558594 3.933594v15.917969c0 12.089844 9.894532 21.992187 21.984375 21.992187l19.632813-.066406c0-20.605469 16.695312-37.300781 37.296875-37.300781 19.398437 0 35.339843 14.8125 37.125 33.75.191406 2.019531 1.890625 3.554687 3.917969 3.5625l15.882812.054687c12.097656 0 21.988281-9.902343 21.988281-21.992187 0 12.089844 9.894531 21.992187 21.984375 21.992187l15.136719-.050781c2.449219-.007812 4.460937-1.871094 4.742187-4.304688 2.125-18.582031 17.90625-33.011718 37.054688-33.011718 19.144531 0 34.925781 14.429687 37.054688 33.011718.277343 2.433594 2.289062 4.296876 4.738281 4.304688l15.140625.050781c12.089844 0 21.980468-9.902343 21.980468-21.992187l-.003906-15.175782c-.003906-2.453124-1.867187-4.472656-4.304687-4.753906zm0 0" fill="#6990d7"/><path d="m395.667969 183.609375c0-19.140625 14.421875-34.921875 33-37.054687 2.4375-.28125 4.300781-2.300782 4.300781-4.753907l.007812-15.066406c0-12.089844-9.894531-21.980469-21.984374-21.980469h-15.125c-2.453126 0-4.472657 1.859375-4.757813 4.296875-2.152344 18.550781-17.921875 32.949219-37.046875 32.949219s-34.894531-14.398438-37.050781-32.949219c-.28125-2.4375-2.300781-4.296875-4.753907-4.296875h-15.128906c-12.089844 0-21.980468 9.890625-21.980468 21.980469v15.066406c0 2.453125-1.863282 4.476563-4.304688 4.757813-18.566406 2.136718-32.984375 17.910156-32.984375 37.050781s14.417969 34.914063 32.984375 37.050781c2.441406.28125 4.304688 2.300782 4.304688 4.757813v15.171875c0 12.089844 9.890624 21.992187 21.980468 21.992187l15.136719-.050781c2.449219-.007812 4.460937-1.871094 4.742187-4.304688 2.125-18.582031 17.910157-33.011718 37.054688-33.011718s34.929688 14.429687 37.054688 33.011718c.277343 2.433594 2.292968 4.296876 4.742187 4.304688l15.136719.050781c12.089844 0 21.980468-9.902343 21.980468-21.992187l-.003906-15.175782c-.003906-2.453124-1.867187-4.472656-4.304687-4.753906-18.578125-2.128906-33-17.902344-33-37.050781zm0 0" fill="#6990d7"/><path d="m237.839844 183.609375c0-19.398437 14.808594-35.339844 33.734375-37.132813 2.019531-.191406 3.558593-1.898437 3.558593-3.929687l.015626-15.8125c0-12.089844-9.894532-21.984375-21.992188-21.984375l-15.875-.039062c-2.027344-.003907-3.730469-1.542969-3.921875-3.558594-1.789063-18.933594-17.730469-33.746094-37.128906-33.746094-19.402344 0-35.34375 14.8125-37.132813 33.746094-.191406 2.019531-1.894531 3.554687-3.921875 3.558594l-15.875.039062c-12.089843 0-21.984375 9.894531-21.984375 21.984375v15.8125c0 2.03125-1.539062 3.738281-3.5625 3.929687-18.925781 1.796876-33.730468 17.734376-33.730468 37.132813 0 19.394531 14.804687 35.332031 33.730468 37.128906 2.023438.191407 3.5625 1.898438 3.5625 3.933594v15.917969c0 12.089844 9.894532 21.992187 21.984375 21.992187l19.632813-.070312c0-20.601563 16.695312-37.296875 37.296875-37.296875 19.398437 0 35.339843 14.8125 37.125 33.75.1875 2.015625 1.890625 3.554687 3.917969 3.5625l15.878906.054687c12.101562 0 21.992187-9.902343 21.992187-21.992187l-.011719-15.921875c-.003906-2.03125-1.539062-3.738281-3.5625-3.929688-18.925781-1.789062-33.730468-17.726562-33.730468-37.128906zm0 0" fill="#1ed688"/><g fill="#ffc14f"><path d="m256.503906 297.347656c-4.285156 0-7.757812 3.472656-7.757812 7.753906v19.824219c0 4.285157 3.472656 7.757813 7.757812 7.757813 4.28125 0 7.753906-3.472656 7.753906-7.757813v-19.824219c0-4.28125-3.472656-7.753906-7.753906-7.753906zm0 0"/><path d="m256.503906 0c-4.285156 0-7.757812 3.472656-7.757812 7.753906v19.824219c0 4.285156 3.472656 7.757813 7.757812 7.757813 4.28125 0 7.753906-3.472657 7.753906-7.757813v-19.824219c0-4.28125-3.472656-7.753906-7.753906-7.753906zm0 0"/><path d="m54.949219 139.6875c0-4.285156-3.472657-7.757812-7.753907-7.757812h-19.828124c-4.28125 0-7.753907 3.472656-7.753907 7.757812 0 4.28125 3.472657 7.753906 7.753907 7.753906h19.828124c4.28125 0 7.753907-3.472656 7.753907-7.753906zm0 0"/><path d="m114.324219 39.433594-15.183594-12.742188c-3.28125-2.753906-8.175781-2.324218-10.925781.957032-2.753906 3.28125-2.328125 8.171874.953125 10.925781l15.1875 12.742187c3.300781 2.769532 8.191406 2.304688 10.925781-.957031 2.753906-3.28125 2.324219-8.171875-.957031-10.925781zm0 0"/><path d="m64.210938 243.523438-18.421876 7.328124c-9.417968 3.746094-3.910156 18.242188 5.734376 14.410157l18.417968-7.324219c3.980469-1.582031 5.925782-6.09375 4.339844-10.074219-1.582031-3.976562-6.089844-5.917969-10.070312-4.339843zm0 0"/><path d="m499.179688 142.214844h-19.824219c-4.28125 0-7.753907 3.472656-7.753907 7.753906 0 4.285156 3.472657 7.757812 7.753907 7.757812h19.824219c4.285156 0 7.757812-3.472656 7.757812-7.757812 0-4.28125-3.472656-7.753906-7.757812-7.753906zm0 0"/><path d="m468.402344 298.132812-15.1875-12.742187c-3.28125-2.753906-8.171875-2.328125-10.925782.953125-2.753906 3.28125-2.324218 8.175781.957032 10.925781l15.1875 12.746094c3.296875 2.761719 8.183594 2.308594 10.925781-.957031 2.753906-3.28125 2.324219-8.175782-.957031-10.925782zm0 0"/><path d="m403.472656 22.011719-15.621094 12.210937c-3.375 2.636719-3.972656 7.511719-1.335937 10.886719 2.648437 3.382813 7.519531 3.964844 10.886719 1.332031l15.617187-12.207031c3.378907-2.636719 3.976563-7.511719 1.335938-10.886719-2.636719-3.375-7.507813-3.972656-10.882813-1.335937zm0 0"/></g><path d="m501.832031 410.644531-177.675781 90.085938c-23.875 15.191406-54.242188 14.925781-77.730469-.203125-11.027343-7.113282-14.492187-7.796875-72.480469-36.46875-25.765624-12.605469-49.242187-16.621094-87.503906-21.335938v-111.292968h126.890625c7.878907 0 15.429688 3.132812 21 8.707031 1.746094 1.746093-11.574219-11.574219 57.078125 57.0625 5.214844 5.214843 7.796875 12.175781 7.605469 19.066406l1.222656-.835937 186.234375-46.886719c24.679688-3.121094 35.730469 29.167969 15.359375 42.101562zm0 0" fill="#f2bb88"/><path d="m292.121094 432.875c-9.796875 10.125-25.90625 10.28125-35.898438.3125l-47.453125-47.464844c-2.535156-2.535156-5.96875-3.957031-9.554687-3.957031h-112.773438v-50.335937h126.890625c7.882813 0 15.433594 3.132812 21 8.703124 1.746094 1.742188-11.574219-11.574218 57.078125 57.0625 9.683594 9.683594 10.375 25.675782.710938 35.679688zm0 0" fill="#f2d1a5"/><path d="m92.789062 328.339844v137.59375c0 1.953125-.183593 3.878906-.527343 5.738281 0 0 0 0-.007813 0-2.710937 14.558594-15.554687 25.675781-30.878906 25.675781h-29.460938c-17.277343 0-31.414062-14.136718-31.414062-31.414062v-137.59375c0-15.394532 11.21875-28.289063 25.894531-30.917969 1.796875-.328125 3.636719-.496094 5.519531-.496094h29.460938c17.277344 0 31.414062 14.136719 31.414062 31.414063zm0 0" fill="#919196"/><path d="m92.789062 328.339844v137.59375c0 1.953125-.183593 3.878906-.527343 5.738281 0 0 0 0-.007813 0-1.800781.332031-3.640625.496094-5.535156.496094h-29.449219c-17.277343 0-31.414062-14.132813-31.414062-31.414063v-137.589844c0-1.957031.1875-3.878906.539062-5.742187 1.796875-.328125 3.636719-.496094 5.519531-.496094h29.460938c17.277344 0 31.414062 14.136719 31.414062 31.414063zm0 0" fill="#a0a0a5"/><path d="m65.226562 447.859375c0 10.261719-8.320312 18.582031-18.582031 18.582031s-18.578125-8.320312-18.578125-18.582031 8.316406-18.578125 18.578125-18.578125 18.582031 8.316406 18.582031 18.578125zm0 0" fill="#5a5f64"/></svg>