<?xml version="1.0" encoding="UTF-8"?>
<svg xmlns="http://www.w3.org/2000/svg" xmlns:xlink="http://www.w3.org/1999/xlink" width="35pt" height="35pt" viewBox="0 0 35 35" version="1.1">
<g id="surface1">
<path style=" stroke:none;fill-rule:nonzero;fill:rgb(44.705882%,84.705882%,100%);fill-opacity:1;" d="M 21.707031 2.367188 L 18.835938 1.445312 C 20.425781 2.015625 21.839844 2.898438 22.988281 4.058594 C 25.09375 6.183594 26.1875 9.113281 26.152344 12.53125 C 26.121094 15.554688 25.652344 17.535156 24.914062 18.960938 C 24.867188 19.050781 24.816406 19.140625 24.769531 19.226562 L 24.039062 20.566406 C 23.015625 22.445312 23.773438 24.796875 25.703125 25.722656 C 26.796875 26.246094 28.074219 26.210938 29.132812 25.621094 C 31.226562 24.464844 32.523438 22.261719 32.523438 19.871094 L 32.523438 17.191406 C 32.523438 10.421875 28.152344 4.433594 21.707031 2.367188 Z M 21.707031 2.367188 "/>
<path style=" stroke:none;fill-rule:nonzero;fill:rgb(44.705882%,84.705882%,100%);fill-opacity:1;" d="M 18.046875 1.191406 C 18.050781 1.195312 18.054688 1.195312 18.058594 1.195312 Z M 18.046875 1.191406 "/>
<path style=" stroke:none;fill-rule:nonzero;fill:rgb(98.823529%,76.862745%,61.568627%);fill-opacity:1;" d="M 21.273438 22.617188 C 19.59375 23.792969 17.6875 25.125 16.253906 28.152344 L 16.226562 28.214844 C 15.078125 30.644531 13.34375 34.3125 8.027344 34.3125 C 4.492188 34.3125 2.464844 31.5 2.464844 26.597656 L 2.464844 12.53125 C 2.464844 6 7.777344 0.6875 14.308594 0.6875 C 17.753906 0.6875 20.839844 1.882812 22.988281 4.058594 C 25.09375 6.183594 26.1875 9.113281 26.152344 12.53125 C 26.082031 19.257812 23.855469 20.816406 21.273438 22.617188 Z M 21.273438 22.617188 "/>
<path style=" stroke:none;fill-rule:nonzero;fill:rgb(30.196078%,72.941176%,96.470588%);fill-opacity:1;" d="M 12.636719 14.480469 C 12.636719 16.1875 11.253906 17.570312 9.550781 17.570312 C 7.84375 17.570312 6.464844 16.1875 6.464844 14.480469 C 6.464844 12.777344 7.84375 11.394531 9.550781 11.394531 C 11.253906 11.394531 12.636719 12.777344 12.636719 14.480469 Z M 12.636719 14.480469 "/>
<path style=" stroke:none;fill-rule:nonzero;fill:rgb(30.196078%,72.941176%,96.470588%);fill-opacity:1;" d="M 6.675781 15.726562 L 4.214844 10.964844 C 3.914062 10.292969 3.703125 9.59375 3.574219 8.886719 C 2.976562 5.6875 5.230469 2.65625 8.460938 2.234375 C 6.457031 4.113281 5.851562 7.242188 6.957031 9.761719 L 8.015625 11.804688 "/>
<path style=" stroke:none;fill-rule:nonzero;fill:rgb(0%,0%,0%);fill-opacity:1;" d="M 21.222656 18.375 C 21.457031 18.375 21.683594 18.257812 21.8125 18.042969 L 21.820312 18.027344 C 22.019531 17.703125 21.914062 17.28125 21.589844 17.085938 C 21.265625 16.886719 20.84375 16.992188 20.648438 17.316406 L 20.640625 17.328125 C 20.441406 17.652344 20.542969 18.074219 20.867188 18.273438 C 20.980469 18.339844 21.101562 18.375 21.222656 18.375 Z M 21.222656 18.375 "/>
<path style=" stroke:none;fill-rule:nonzero;fill:rgb(0%,0%,0%);fill-opacity:1;" d="M 30.085938 7.609375 C 28.042969 4.808594 25.21875 2.769531 21.917969 1.710938 L 19.054688 0.792969 C 17.589844 0.273438 15.988281 0 14.308594 0 C 12.183594 0 10.089844 0.542969 8.238281 1.570312 C 6.546875 1.828125 5.011719 2.761719 4.003906 4.144531 C 3.257812 5.171875 2.847656 6.359375 2.796875 7.585938 C 2.121094 9.152344 1.777344 10.816406 1.777344 12.53125 L 1.777344 18.582031 C 1.777344 18.960938 2.085938 19.269531 2.464844 19.269531 C 2.84375 19.269531 3.148438 18.960938 3.148438 18.582031 L 3.148438 12.53125 C 3.148438 11.871094 3.207031 11.21875 3.320312 10.578125 C 3.402344 10.800781 3.488281 11.023438 3.585938 11.242188 C 3.589844 11.257812 3.597656 11.269531 3.605469 11.28125 L 6.066406 16.042969 C 6.082031 16.070312 6.101562 16.101562 6.121094 16.125 C 6.371094 16.652344 6.75 17.113281 7.230469 17.460938 C 7.742188 17.832031 8.0625 18.402344 8.113281 19.03125 C 8.160156 19.660156 7.933594 20.273438 7.488281 20.71875 L 7.335938 20.871094 C 6.328125 21.878906 5.773438 23.214844 5.773438 24.636719 L 5.773438 26.285156 C 5.773438 26.664062 6.082031 26.972656 6.460938 26.972656 C 6.839844 26.972656 7.144531 26.664062 7.144531 26.285156 L 7.144531 24.636719 C 7.144531 23.582031 7.558594 22.589844 8.304688 21.84375 L 8.457031 21.691406 C 9.191406 20.960938 9.5625 19.953125 9.480469 18.921875 C 9.460938 18.691406 9.421875 18.46875 9.359375 18.25 C 9.421875 18.253906 9.484375 18.253906 9.550781 18.253906 C 10.558594 18.253906 11.503906 17.863281 12.21875 17.148438 C 12.871094 16.496094 13.234375 15.664062 13.304688 14.808594 L 13.46875 14.972656 C 14.324219 15.824219 14.796875 16.960938 14.796875 18.164062 C 14.796875 19.140625 14.472656 20.105469 13.882812 20.886719 L 11.363281 24.222656 C 11.136719 24.527344 11.195312 24.957031 11.5 25.183594 C 11.621094 25.277344 11.765625 25.324219 11.910156 25.324219 C 12.117188 25.324219 12.324219 25.230469 12.460938 25.050781 L 14.980469 21.710938 C 15.746094 20.699219 16.167969 19.4375 16.167969 18.164062 C 16.167969 16.59375 15.554688 15.113281 14.441406 14 L 12.140625 11.710938 C 12.085938 11.65625 12.027344 11.613281 11.960938 11.582031 C 10.929688 10.722656 9.542969 10.5 8.328125 10.914062 L 7.824219 9.9375 C 8.175781 9.183594 8.664062 8.488281 9.273438 7.878906 C 10.628906 6.523438 12.417969 5.777344 14.3125 5.777344 L 14.320312 5.777344 C 16.480469 5.777344 18.371094 6.488281 19.640625 7.769531 C 20.859375 9.003906 21.492188 10.777344 21.472656 12.898438 C 21.464844 13.621094 21.425781 14.277344 21.355469 14.851562 C 21.3125 15.226562 21.578125 15.570312 21.957031 15.613281 C 22.332031 15.660156 22.675781 15.390625 22.71875 15.015625 C 22.792969 14.394531 22.835938 13.6875 22.84375 12.914062 C 22.871094 10.417969 22.097656 8.304688 20.617188 6.804688 C 19.085938 5.257812 16.851562 4.40625 14.320312 4.402344 C 14.316406 4.402344 14.316406 4.402344 14.3125 4.402344 C 12.054688 4.402344 9.917969 5.292969 8.304688 6.90625 C 7.890625 7.320312 7.523438 7.769531 7.207031 8.242188 C 6.839844 6.289062 7.457031 4.15625 8.871094 2.789062 C 10.527344 1.863281 12.402344 1.371094 14.308594 1.371094 C 15.554688 1.371094 16.753906 1.539062 17.867188 1.855469 L 18.613281 2.09375 C 20.105469 2.632812 21.429688 3.457031 22.5 4.539062 C 24.476562 6.535156 25.5 9.292969 25.46875 12.523438 C 25.4375 15.417969 25.007812 17.285156 24.3125 18.628906 C 24.3125 18.628906 24.3125 18.632812 24.308594 18.632812 L 24.167969 18.894531 C 23.339844 20.335938 22.179688 21.148438 20.878906 22.054688 C 19.128906 23.277344 17.144531 24.664062 15.636719 27.859375 L 15.605469 27.921875 C 14.46875 30.328125 12.910156 33.628906 8.027344 33.628906 C 6.5 33.628906 5.304688 33.042969 4.476562 31.894531 C 3.609375 30.691406 3.148438 28.859375 3.148438 26.597656 L 3.148438 24.074219 C 3.148438 23.695312 2.84375 23.386719 2.464844 23.386719 C 2.085938 23.386719 1.777344 23.695312 1.777344 24.074219 L 1.777344 26.597656 C 1.777344 29.183594 2.3125 31.238281 3.363281 32.695312 C 4.449219 34.203125 6.0625 35 8.027344 35 C 13.777344 35 15.699219 30.9375 16.847656 28.507812 L 16.875 28.445312 C 18.230469 25.582031 19.976562 24.359375 21.667969 23.179688 C 22.082031 22.890625 22.496094 22.601562 22.894531 22.292969 C 22.890625 22.765625 22.960938 23.246094 23.113281 23.710938 C 23.488281 24.875 24.300781 25.808594 25.40625 26.339844 C 26.011719 26.632812 26.667969 26.777344 27.320312 26.777344 C 28.0625 26.777344 28.800781 26.589844 29.464844 26.222656 C 31.773438 24.945312 33.207031 22.511719 33.207031 19.871094 L 33.207031 17.191406 C 33.207031 13.722656 32.128906 10.410156 30.085938 7.609375 Z M 9.550781 12.082031 C 10.164062 12.082031 10.777344 12.316406 11.246094 12.785156 C 12.183594 13.71875 12.183594 15.242188 11.246094 16.179688 C 10.3125 17.113281 8.789062 17.113281 7.851562 16.179688 C 7.398438 15.726562 7.148438 15.121094 7.148438 14.480469 C 7.148438 13.839844 7.398438 13.238281 7.851562 12.785156 C 8.320312 12.316406 8.933594 12.082031 9.550781 12.082031 Z M 5.785156 12.511719 L 4.832031 10.671875 C 4.566406 10.058594 4.367188 9.417969 4.246094 8.761719 C 3.996094 7.421875 4.304688 6.066406 5.113281 4.953125 C 5.507812 4.414062 6.003906 3.957031 6.570312 3.613281 C 5.558594 5.550781 5.421875 7.929688 6.3125 9.992188 C 6.011719 10.792969 5.832031 11.640625 5.785156 12.511719 Z M 31.835938 19.871094 C 31.835938 22.011719 30.671875 23.984375 28.800781 25.023438 C 27.9375 25.5 26.890625 25.53125 26 25.101562 C 25.238281 24.738281 24.675781 24.09375 24.417969 23.289062 C 24.160156 22.484375 24.238281 21.636719 24.640625 20.894531 L 25.515625 19.289062 C 25.527344 19.269531 25.539062 19.246094 25.546875 19.222656 C 26.3125 17.71875 26.808594 15.640625 26.839844 12.539062 C 26.875 9.167969 25.859375 6.238281 23.898438 4.027344 C 28.734375 6.5625 31.835938 11.578125 31.835938 17.191406 Z M 31.835938 19.871094 "/>
<path style=" stroke:none;fill-rule:nonzero;fill:rgb(0%,0%,0%);fill-opacity:1;" d="M 28.328125 23.304688 C 28.507812 23.304688 28.683594 23.230469 28.8125 23.101562 C 28.941406 22.976562 29.011719 22.800781 29.011719 22.617188 C 29.011719 22.4375 28.941406 22.261719 28.8125 22.132812 C 28.683594 22.003906 28.507812 21.933594 28.328125 21.933594 C 28.144531 21.933594 27.96875 22.003906 27.839844 22.132812 C 27.714844 22.261719 27.640625 22.4375 27.640625 22.617188 C 27.640625 22.796875 27.714844 22.976562 27.839844 23.101562 C 27.96875 23.230469 28.144531 23.304688 28.328125 23.304688 Z M 28.328125 23.304688 "/>
<path style=" stroke:none;fill-rule:nonzero;fill:rgb(0%,0%,0%);fill-opacity:1;" d="M 29.226562 21.101562 C 29.410156 21.101562 29.585938 21.03125 29.714844 20.902344 C 29.839844 20.773438 29.914062 20.597656 29.914062 20.417969 C 29.914062 20.234375 29.839844 20.058594 29.714844 19.929688 C 29.585938 19.804688 29.410156 19.730469 29.226562 19.730469 C 29.046875 19.730469 28.871094 19.804688 28.742188 19.929688 C 28.617188 20.058594 28.542969 20.234375 28.542969 20.417969 C 28.542969 20.597656 28.617188 20.773438 28.742188 20.902344 C 28.871094 21.03125 29.046875 21.101562 29.226562 21.101562 Z M 29.226562 21.101562 "/>
<path style=" stroke:none;fill-rule:nonzero;fill:rgb(0%,0%,0%);fill-opacity:1;" d="M 30.128906 18.902344 C 30.3125 18.902344 30.488281 18.828125 30.613281 18.699219 C 30.742188 18.574219 30.816406 18.394531 30.816406 18.214844 C 30.816406 18.035156 30.742188 17.859375 30.613281 17.730469 C 30.488281 17.601562 30.308594 17.527344 30.128906 17.527344 C 29.949219 17.527344 29.773438 17.601562 29.644531 17.730469 C 29.515625 17.859375 29.441406 18.035156 29.441406 18.214844 C 29.441406 18.394531 29.515625 18.574219 29.644531 18.699219 C 29.773438 18.828125 29.949219 18.902344 30.128906 18.902344 Z M 30.128906 18.902344 "/>
<path style=" stroke:none;fill-rule:nonzero;fill:rgb(0%,0%,0%);fill-opacity:1;" d="M 2.464844 22.015625 C 2.84375 22.015625 3.148438 21.707031 3.148438 21.328125 L 3.148438 21.320312 C 3.148438 20.941406 2.84375 20.632812 2.464844 20.632812 C 2.085938 20.632812 1.777344 20.941406 1.777344 21.320312 L 1.777344 21.328125 C 1.777344 21.707031 2.085938 22.015625 2.464844 22.015625 Z M 2.464844 22.015625 "/>
</g>
</svg>
