<?xml version="1.0" encoding="iso-8859-1"?>
<!-- Generator: Adobe Illustrator 19.0.0, SVG Export Plug-In . SVG Version: 6.00 Build 0)  -->
<svg version="1.1" id="Capa_1" xmlns="http://www.w3.org/2000/svg" xmlns:xlink="http://www.w3.org/1999/xlink" x="0px" y="0px"
	 viewBox="0 0 511.767 511.767" style="enable-background:new 0 0 511.767 511.767;" xml:space="preserve">
<path style="fill:#E6E9ED;" d="M255.891,43.988c-117.032,0-211.903,94.867-211.903,211.903
	c0,117.032,94.871,211.896,211.903,211.896c117.024,0,211.903-94.863,211.903-211.896
	C467.794,138.856,372.916,43.988,255.891,43.988z M255.891,387.823c-72.834,0-131.94-59.074-131.94-131.932
	c0-72.865,59.106-131.939,131.94-131.939c72.826,0,131.939,59.074,131.939,131.939C387.831,328.749,328.718,387.823,255.891,387.823
	z"/>
<path style="fill:#FFFFFF;" d="M255.891,43.988c-117.032,0-211.903,94.867-211.903,211.903
	c0,117.032,94.871,211.896,211.903,211.896c117.024,0,211.903-94.863,211.903-211.896
	C467.794,138.856,372.916,43.988,255.891,43.988z M255.891,459.79c-112.433,0-203.907-91.466-203.907-203.898
	S143.458,51.985,255.891,51.985s203.906,91.474,203.906,203.907S368.323,459.79,255.891,459.79z"/>
<g style="opacity:0.2;">
	<path d="M255.891,115.956c-77.16,0-139.937,62.776-139.937,139.936S178.73,395.82,255.891,395.82
		c77.159,0,139.936-62.768,139.936-139.928S333.05,115.956,255.891,115.956z M255.891,387.823
		c-72.834,0-131.94-59.074-131.94-131.932c0-72.865,59.106-131.939,131.94-131.939c72.826,0,131.939,59.074,131.939,131.939
		C387.831,328.749,328.718,387.823,255.891,387.823z"/>
</g>
<path style="fill:#FFD2A6;" d="M227.896,499.773c-119.336,0-215.901-96.565-215.901-215.901v-15.993h15.993v15.993
	c0,110.496,89.413,199.908,199.909,199.908h15.993v15.993H227.896z"/>
<g style="opacity:0.2;">
	<path d="M243.889,483.78v15.993h-9.785c-1.374-2.358-2.218-5.068-2.218-7.988v-8.005H243.889z"/>
</g>
<g style="opacity:0.2;">
	<path d="M27.987,279.881h-8.004c-2.928,0-5.63-0.844-7.988-2.218v-9.785h15.993L27.987,279.881L27.987,279.881z"/>
</g>
<path style="fill:#FFD2A6;" d="M283.878,11.995c119.336,0,215.9,96.565,215.9,215.901v15.993h-15.992v-15.993
	c0-110.496-89.412-199.908-199.908-199.908h-15.993V11.995H283.878z"/>
<g style="opacity:0.2;">
	<path d="M267.885,27.988V11.995h9.784c1.375,2.358,2.219,5.064,2.219,7.989v8.004H267.885z"/>
</g>
<g style="opacity:0.2;">
	<path d="M483.786,231.887h8.004c2.929,0,5.631,0.844,7.988,2.214v9.789h-15.992V231.887z"/>
</g>
<path style="fill:#FFD2A6;" d="M499.779,283.871c0,119.336-96.564,215.901-215.9,215.901h-15.993v-15.993h15.993
	c110.496,0,199.908-89.412,199.908-199.908v-15.993h15.992V283.871z"/>
<g style="opacity:0.2;">
	<path d="M483.786,267.878h15.992v9.785c-2.357,1.374-5.067,2.218-7.988,2.218h-8.004V267.878z"/>
</g>
<g style="opacity:0.2;">
	<path d="M279.888,483.78v8.005c0,2.928-0.844,5.63-2.219,7.988h-9.784V483.78H279.888z"/>
</g>
<path style="fill:#FFD2A6;" d="M227.904,12.003c-119.336,0-215.901,96.565-215.901,215.901v15.993h15.993v-15.993
	c0-110.496,89.413-199.908,199.909-199.908h15.993V12.003H227.904z"/>
<path style="fill:#656D78;" d="M255.883,3.999c-8.832,0-15.993,7.161-15.993,15.993V40.92h31.985V19.992
	C271.875,11.16,264.716,3.999,255.883,3.999z"/>
<g style="opacity:0.2;">
	<path d="M243.896,27.996V12.003h-9.785c-1.374,2.358-2.218,5.064-2.218,7.989v8.004H243.896z"/>
</g>
<g style="opacity:0.2;">
	<path d="M271.875,28.57c-10.722-0.781-21.404-0.769-31.985,0.012V40.92h31.985V28.57z"/>
</g>
<path style="fill:#656D78;" d="M255.883,507.769c8.832,0,15.992-7.161,15.992-15.992v-20.929h-31.985v20.929
	C239.891,500.608,247.051,507.769,255.883,507.769z"/>
<g style="opacity:0.2;">
	<path d="M239.891,483.202c10.722,0.78,21.404,0.765,31.985-0.016v-12.339h-31.985V483.202z"/>
</g>
<path style="fill:#656D78;" d="M507.768,255.884c0-8.832-7.161-15.993-15.993-15.993h-20.928v31.985h20.928
	C500.607,271.876,507.768,264.716,507.768,255.884z"/>
<g style="opacity:0.2;">
	<path d="M483.201,271.876c0.781-10.721,0.766-21.404-0.016-31.985h-12.338v31.985H483.201z"/>
</g>
<path style="fill:#656D78;" d="M3.998,255.884c0,8.832,7.161,15.992,15.992,15.992h20.928v-31.985H19.99
	C11.159,239.891,3.998,247.052,3.998,255.884z"/>
<g style="opacity:0.3;">
	<path style="fill:#FFFFFF;" d="M11.994,255.884c0-8.832,7.161-15.993,15.993-15.993H19.99c-8.832,0-15.992,7.161-15.992,15.993
		s7.161,15.992,15.992,15.992h7.997C19.155,271.876,11.994,264.716,11.994,255.884z"/>
</g>
<g style="opacity:0.3;">
	<path style="fill:#FFFFFF;" d="M499.771,255.884c0,8.832-7.16,15.992-15.992,15.992h7.996c8.832,0,15.993-7.16,15.993-15.992
		s-7.161-15.993-15.993-15.993h-7.996C492.612,239.891,499.771,247.052,499.771,255.884z"/>
</g>
<g style="opacity:0.3;">
	<path style="fill:#FFFFFF;" d="M255.883,499.749c-8.832,0-15.993-7.161-15.993-15.993v7.997c0,8.831,7.161,15.992,15.993,15.992
		c8.832,0,15.992-7.161,15.992-15.992v-7.997C271.875,492.588,264.716,499.749,255.883,499.749z"/>
</g>
<g style="opacity:0.3;">
	<path style="fill:#FFFFFF;" d="M255.883,11.972c8.832,0,15.992,7.161,15.992,15.993v-7.997c0-8.832-7.16-15.993-15.992-15.993
		c-8.832,0-15.993,7.161-15.993,15.993v7.997C239.891,19.133,247.051,11.972,255.883,11.972z"/>
</g>
<g style="opacity:0.2;">
	<path d="M27.995,231.895h-8.004c-2.928,0-5.63,0.844-7.988,2.214v9.789h15.993L27.995,231.895L27.995,231.895z"/>
</g>
<g style="opacity:0.5;">
	<path style="fill:#FFFFFF;" d="M227.904,12.003c-119.336,0-215.901,96.565-215.901,215.901v6.204
		c2.358-1.37,5.061-2.214,7.988-2.214h0.008v-3.99c0-119.336,96.565-215.901,215.901-215.901L227.904,12.003L227.904,12.003z"/>
</g>
<g style="opacity:0.5;">
	<path style="fill:#FFFFFF;" d="M227.904,499.773c-119.336,0-215.901-96.565-215.901-215.901v-6.2
		c2.358,1.366,5.061,2.21,7.988,2.21h0.008v3.99c0,119.336,96.565,215.901,215.901,215.901L227.904,499.773L227.904,499.773z"/>
</g>
<g style="opacity:0.2;">
	<path d="M283.878,12.003c119.336,0,215.9,96.565,215.9,215.901v6.204c-2.357-1.37-5.06-2.214-7.988-2.214h-0.008v-3.99
		c0-119.336-96.564-215.901-215.9-215.901L283.878,12.003L283.878,12.003z"/>
</g>
<g style="opacity:0.2;">
	<path d="M283.878,499.773c119.336,0,215.9-96.565,215.9-215.901v-6.2c-2.357,1.366-5.06,2.21-7.988,2.21h-0.008v3.99
		c0,119.336-96.564,215.901-215.9,215.901L283.878,499.773L283.878,499.773z"/>
</g>
<g style="opacity:0.2;">
	<path d="M28.565,239.891c-0.78,10.722-0.765,21.405,0.016,31.985h12.338v-31.985H28.565z"/>
</g>
<g>
	<path style="fill:#ED5565;" d="M171.734,52.727l36.718,88.64c29.314-12.12,63.244-13.088,94.854,0l36.726-88.647
		C283.933,29.48,223.727,31.19,171.734,52.727z"/>
	<path style="fill:#ED5565;" d="M340.039,459.002l-36.718-88.64c-29.314,12.12-63.244,13.088-94.854,0l-36.726,88.647
		C227.841,482.249,288.049,480.539,340.039,459.002z"/>
	<path style="fill:#ED5565;" d="M52.75,340.017l88.639-36.717c-12.12-29.314-13.088-63.245,0-94.855L52.742,171.72
		C29.502,227.819,31.212,288.026,52.75,340.017z"/>
</g>
<g style="opacity:0.2;">
	<path d="M60.175,336.941c0.945,2.28,1.867,4.561,2.889,6.802l74.06-30.682c-1.062-2.21-1.898-4.545-2.85-6.81L60.175,336.941z"/>
</g>
<g style="opacity:0.2;">
	<path d="M134.29,205.505c0.944-2.276,1.78-4.607,2.85-6.817l-74.06-30.682c-1.022,2.237-1.944,4.521-2.889,6.798L134.29,205.505z"
		/>
</g>
<g style="opacity:0.2;">
	<path d="M452.075,336.941c-0.945,2.28-1.866,4.561-2.89,6.802l-74.06-30.682c1.062-2.21,1.897-4.545,2.851-6.81L452.075,336.941z"
		/>
</g>
<g style="opacity:0.2;">
	<path d="M377.961,205.505c-0.945-2.276-1.781-4.607-2.851-6.817l74.06-30.682c1.023,2.237,1.944,4.521,2.89,6.798L377.961,205.505z
		"/>
</g>
<g style="opacity:0.2;">
	<path d="M174.82,59.673c-2.28,0.945-4.568,1.866-6.802,2.89l30.681,74.06c2.21-1.062,4.537-1.897,6.81-2.851L174.82,59.673z"/>
</g>
<g style="opacity:0.2;">
	<path d="M306.25,133.787c2.28,0.945,4.607,1.781,6.817,2.851l30.682-74.06c-2.233-1.023-4.521-1.945-6.794-2.89L306.25,133.787z"/>
</g>
<g style="opacity:0.2;">
	<path d="M336.932,452.06c2.28-0.938,4.568-1.858,6.802-2.889l-30.682-74.061c-2.21,1.062-4.537,1.905-6.81,2.858L336.932,452.06z"
		/>
</g>
<g style="opacity:0.2;">
	<path d="M205.501,377.953c-2.28-0.953-4.607-1.78-6.817-2.858l-30.681,74.061c2.233,1.03,4.521,1.951,6.794,2.889L205.501,377.953z
		"/>
</g>
<path style="fill:#ED5565;" d="M459.026,171.712l-88.64,36.717c12.12,29.315,13.088,63.245,0,94.855l88.647,36.725
	C482.273,283.91,480.563,223.703,459.026,171.712z"/>
<g style="opacity:0.2;">
	<path d="M202.354,126.646l6.099,14.72c2.429-1.004,4.928-1.812,7.418-2.659c1.156-0.398,2.28-0.879,3.459-1.242
		c3.249-1.003,6.552-1.812,9.878-2.549c0.609-0.133,1.188-0.328,1.796-0.453c8.137-1.675,16.469-2.511,24.872-2.515
		c0.008,0,0.008,0,0.016,0c0.047,0,0.094,0.008,0.141,0.008c4.053,0.004,8.121,0.211,12.189,0.617
		c0.999,0.102,1.968,0.297,2.968,0.422c3.021,0.375,6.044,0.776,9.058,1.386c1.757,0.352,3.452,0.847,5.178,1.273
		c2.218,0.546,4.443,1.035,6.653,1.714c2.194,0.671,4.318,1.511,6.458,2.3c1.593,0.582,3.193,1.046,4.771,1.699l6.1-14.728
		c-16.5-6.856-34.562-10.683-53.515-10.683C236.932,115.956,218.861,119.786,202.354,126.646z"/>
</g>
<g style="opacity:0.2;">
	<path d="M137.273,291.711c-1.718-5.685-2.936-11.572-3.827-17.562c-0.273-1.828-0.648-3.632-0.835-5.475
		c-0.078-0.75-0.07-1.515-0.133-2.265c-0.289-3.412-0.507-6.825-0.515-10.265c0-0.086-0.016-0.168-0.016-0.254
		c0-0.882,0.117-1.741,0.133-2.62c0.062-3.162,0.172-6.329,0.484-9.499c0.156-1.64,0.46-3.233,0.687-4.854
		c0.328-2.409,0.625-4.818,1.102-7.22c0.453-2.252,1.069-4.435,1.632-6.641c0.453-1.742,0.82-3.491,1.351-5.228
		c0.805-2.636,1.789-5.186,2.757-7.743c0.461-1.21,0.797-2.44,1.296-3.643l-14.736-6.106c-6.864,16.512-10.698,34.59-10.698,53.554
		c0,18.952,3.827,37.022,10.683,53.515l14.751-6.106c-0.429-1.031-0.734-2.108-1.132-3.155c-1.015-2.655-2.038-5.294-2.882-8.027
		C137.335,291.985,137.313,291.844,137.273,291.711z"/>
</g>
<g style="opacity:0.2;">
	<path d="M309.438,385.13l-6.115-14.768c-0.233,0.094-0.476,0.156-0.702,0.25c-12.705,5.201-26.465,8.238-40.849,8.918
		c-1.772,0.094-3.537,0.266-5.318,0.273c-0.195,0-0.375,0.023-0.562,0.023c-1.952,0-3.858-0.203-5.787-0.289
		c-1.999-0.094-3.999-0.117-5.998-0.305c-2.686-0.25-5.302-0.703-7.934-1.124c-1.374-0.219-2.749-0.359-4.115-0.625
		c-3.319-0.656-6.567-1.499-9.792-2.413c-0.687-0.195-1.382-0.328-2.077-0.539c-3.905-1.171-7.723-2.529-11.463-4.076
		c-0.086-0.031-0.172-0.062-0.258-0.094l-6.122,14.768c16.508,6.863,34.586,10.689,53.546,10.689
		C274.859,395.82,292.93,391.993,309.438,385.13z"/>
</g>
<g style="opacity:0.2;">
	<path d="M385.12,202.322l-14.735,6.106c0.625,1.503,1.085,3.065,1.647,4.592c0.805,2.167,1.664,4.311,2.343,6.532
		c0.219,0.723,0.359,1.468,0.562,2.194c1.468,5.111,2.569,10.362,3.374,15.72c0.28,1.866,0.655,3.713,0.851,5.595
		c0.109,1.042,0.102,2.116,0.18,3.167c0.25,3.088,0.461,6.185,0.477,9.3c0,0.121,0.016,0.242,0.016,0.363
		c0,1.266-0.148,2.491-0.188,3.748c-0.086,2.733-0.148,5.459-0.422,8.207c-0.203,2.164-0.586,4.271-0.905,6.404
		c-0.281,1.873-0.484,3.732-0.859,5.606c-0.57,2.921-1.344,5.778-2.116,8.629c-0.297,1.062-0.508,2.132-0.828,3.193
		c-1.077,3.577-2.351,7.075-3.74,10.503c-0.148,0.367-0.242,0.742-0.391,1.102l14.759,6.114c6.856-16.5,10.683-34.555,10.683-53.507
		C395.826,236.92,391.992,218.839,385.12,202.322z"/>
</g>
<g style="opacity:0.3;">
	<path style="fill:#FFFFFF;" d="M333.925,444.243c-24.051,10.003-50.406,15.547-78.034,15.547s-53.983-5.544-78.035-15.547
		l-6.114,14.767c6.981,2.89,14.018,5.388,21.1,7.52c0.164,0.055,0.328,0.094,0.492,0.141c3.28,0.977,6.56,1.866,9.855,2.687
		c0.679,0.172,1.375,0.32,2.054,0.477c2.764,0.656,5.529,1.272,8.293,1.819c1.265,0.25,2.545,0.461,3.826,0.687
		c2.187,0.391,4.381,0.773,6.575,1.102c1.89,0.273,3.787,0.5,5.692,0.719c1.616,0.203,3.233,0.406,4.85,0.57
		c2.452,0.241,4.919,0.405,7.387,0.562c1.125,0.07,2.257,0.172,3.382,0.227c2.866,0.141,5.755,0.195,8.652,0.219
		c0.796,0.008,1.585,0.047,2.381,0.039c2.858-0.008,5.693-0.102,8.527-0.211c0.906-0.039,1.828-0.047,2.733-0.094
		c2.046-0.109,4.069-0.297,6.099-0.461c22.928-1.882,45.347-7.285,66.399-16.008L333.925,444.243z"/>
</g>
<g style="opacity:0.3;">
	<path style="fill:#FFFFFF;" d="M67.524,333.896c-9.995-24.044-15.54-50.384-15.54-78.004c0-27.632,5.553-53.987,15.556-78.042
		l-14.774-6.118c-0.391,0.937-0.742,1.894-1.117,2.838c-0.937,2.351-1.874,4.701-2.725,7.067c-0.391,1.089-0.742,2.198-1.117,3.299
		c-0.804,2.362-1.601,4.725-2.327,7.095c-0.422,1.378-0.796,2.776-1.187,4.166c-0.578,2.058-1.164,4.111-1.687,6.173
		c-0.461,1.847-0.867,3.713-1.289,5.576c-0.359,1.597-0.726,3.19-1.046,4.787c-0.484,2.413-0.906,4.85-1.304,7.29
		c-0.172,1.046-0.367,2.089-0.531,3.135c-0.453,3.046-0.836,6.115-1.172,9.199c-0.047,0.461-0.109,0.922-0.156,1.382
		c-0.733,7.286-1.116,14.677-1.116,22.154c0,10.62,0.796,21.053,2.265,31.274c2.616,18.055,7.426,35.688,14.337,52.453
		c0.055,0.133,0.102,0.266,0.156,0.397L67.524,333.896z"/>
</g>
<g style="opacity:0.3;">
	<path style="fill:#FFFFFF;" d="M177.863,67.532c24.052-9.999,50.399-15.547,78.027-15.547c27.62,0,53.96,5.544,78.003,15.54
		l6.122-14.771c-1.312-0.546-2.647-1.05-3.967-1.569c-1.882-0.738-3.756-1.491-5.646-2.171c-1.57-0.57-3.171-1.082-4.764-1.616
		c-1.858-0.625-3.717-1.258-5.583-1.832c-1.89-0.578-3.812-1.101-5.716-1.628c-1.523-0.421-3.046-0.858-4.576-1.245
		c-2.421-0.613-4.865-1.164-7.317-1.694c-0.991-0.215-1.983-0.449-2.983-0.652c-3.068-0.621-6.161-1.171-9.276-1.663
		c-0.367-0.059-0.734-0.129-1.102-0.184c-10.831-1.647-21.911-2.507-33.195-2.507c-15.11,0-29.877,1.535-44.144,4.455
		c-1.093,0.223-2.171,0.508-3.256,0.746c-2.343,0.515-4.678,1.03-6.989,1.62c-2.124,0.543-4.232,1.167-6.341,1.776
		c-1.288,0.371-2.6,0.707-3.881,1.105c-2.038,0.625-4.045,1.332-6.06,2.015c-1.375,0.469-2.765,0.906-4.131,1.402
		c-1.617,0.586-3.21,1.233-4.811,1.858c-1.515,0.59-3.03,1.167-4.529,1.788L177.863,67.532z"/>
</g>
<g style="opacity:0.3;">
	<path style="fill:#FFFFFF;" d="M473.573,224.949c-2.53-17.648-7.177-34.878-13.807-51.316c-0.258-0.636-0.491-1.281-0.757-1.913
		l-14.775,6.118c10.012,24.055,15.563,50.415,15.563,78.054c0,27.62-5.544,53.952-15.54,77.996l14.775,6.121
		c0.008-0.008,0.008-0.023,0.008-0.031c1.437-3.459,2.771-6.941,4.021-10.432c0.055-0.164,0.109-0.336,0.164-0.5
		c1.163-3.28,2.24-6.575,3.24-9.879c0.172-0.562,0.32-1.132,0.484-1.702c0.844-2.858,1.632-5.724,2.351-8.59
		c0.272-1.132,0.522-2.28,0.788-3.42c0.531-2.296,1.055-4.592,1.508-6.888c0.352-1.78,0.655-3.576,0.96-5.373
		c0.289-1.655,0.586-3.326,0.836-4.989c0.367-2.483,0.671-4.99,0.96-7.497c0.109-1.007,0.25-2.007,0.352-3.014
		c0.312-3.163,0.547-6.349,0.727-9.551c0.023-0.391,0.055-0.788,0.078-1.187c0.18-3.663,0.281-7.353,0.281-11.065
		C475.791,245.389,475.002,235.066,473.573,224.949z"/>
</g>
<g>
	<path style="fill:#3A3847;" d="M163.941,450.85c-0.586,0-1.179-0.133-1.733-0.398c-43.832-21.139-79.628-56.911-100.813-100.728
		c-0.96-1.991-0.125-4.381,1.858-5.342c1.991-0.944,4.389-0.133,5.341,1.859c20.397,42.199,54.881,76.652,97.081,97.01
		c1.991,0.953,2.827,3.343,1.866,5.342C166.854,450.014,165.424,450.85,163.941,450.85z"/>
	<path style="fill:#3A3847;" d="M347.943,450.787c-1.484,0-2.913-0.836-3.601-2.257c-0.96-1.991-0.124-4.381,1.858-5.342
		c42.177-20.381,76.621-54.818,96.995-96.986c0.96-1.999,3.358-2.819,5.341-1.867c1.984,0.961,2.819,3.351,1.859,5.334
		c-21.154,43.793-56.92,79.558-100.712,100.72C349.122,450.655,348.529,450.787,347.943,450.787z"/>
	<path style="fill:#3A3847;" d="M446.469,167.151c-1.477,0-2.905-0.824-3.593-2.245c-20.428-41.907-54.803-76.138-96.792-96.39
		c-1.99-0.957-2.826-3.346-1.865-5.338c0.96-1.991,3.381-2.818,5.333-1.862c43.604,21.025,79.3,56.572,100.509,100.083
		c0.968,1.988,0.148,4.381-1.843,5.346C447.654,167.023,447.062,167.151,446.469,167.151z"/>
	<path style="fill:#3A3847;" d="M64.97,167.822c-0.585,0-1.179-0.129-1.741-0.398c-1.983-0.96-2.819-3.35-1.858-5.337
		c21.17-43.824,56.974-79.608,100.813-100.763c1.991-0.944,4.389-0.125,5.341,1.862c0.961,1.988,0.125,4.377-1.858,5.338
		c-42.23,20.377-76.707,54.838-97.096,97.037C67.883,166.991,66.454,167.822,64.97,167.822z"/>
</g>
<g>
	<path style="fill:#3A3847;" d="M372.69,198.488c-1.437,0-2.819-0.777-3.537-2.136c-12.135-23.028-30.729-41.622-53.788-53.761
		c-1.952-1.027-2.702-3.447-1.671-5.399c1.038-1.957,3.443-2.698,5.403-1.675c24.489,12.896,44.245,32.645,57.13,57.111
		c1.031,1.952,0.281,4.369-1.671,5.399C373.963,198.34,373.321,198.488,372.69,198.488z"/>
	<path style="fill:#3A3847;" d="M139.053,198.512c-0.632,0-1.265-0.148-1.866-0.461c-1.953-1.027-2.702-3.447-1.671-5.399
		c12.893-24.493,32.649-44.25,57.138-57.134c1.937-1.023,4.357-0.281,5.396,1.675c1.031,1.956,0.281,4.373-1.679,5.399
		c-23.044,12.131-41.646,30.729-53.78,53.784C141.872,197.735,140.49,198.512,139.053,198.512z"/>
	<path style="fill:#3A3847;" d="M194.512,376.696c-0.632,0-1.265-0.148-1.866-0.461c-24.465-12.893-44.222-32.642-57.115-57.131
		c-1.03-1.952-0.281-4.365,1.671-5.396c1.937-1.022,4.373-0.281,5.404,1.679c12.143,23.036,30.736,41.637,53.772,53.772
		c1.952,1.03,2.702,3.451,1.671,5.403C197.331,375.923,195.949,376.696,194.512,376.696z"/>
	<path style="fill:#3A3847;" d="M317.245,376.689c-1.429,0-2.819-0.781-3.537-2.141c-1.031-1.952-0.281-4.365,1.671-5.396
		c23.036-12.135,41.63-30.729,53.772-53.765c1.038-1.96,3.475-2.686,5.403-1.671c1.952,1.03,2.702,3.451,1.671,5.403
		c-12.9,24.474-32.656,44.215-57.114,57.107C318.519,376.54,317.878,376.689,317.245,376.689z"/>
	<path style="fill:#3A3847;" d="M271.875,23.99c-2.21,0-3.998-1.789-3.998-3.999c0-6.614-5.38-11.995-11.994-11.995
		c-6.614,0-11.995,5.381-11.995,11.995c0,2.21-1.789,3.999-3.999,3.999s-3.998-1.789-3.998-3.999C235.892,8.969,244.857,0,255.883,0
		c11.026,0,19.991,8.969,19.991,19.991C275.875,22.202,274.086,23.99,271.875,23.99z"/>
	<path style="fill:#3A3847;" d="M19.99,275.875C8.964,275.875,0,266.902,0,255.876c0-11.022,8.964-19.991,19.99-19.991
		c2.21,0,3.999,1.788,3.999,3.998s-1.789,3.999-3.999,3.999c-6.614,0-11.994,5.38-11.994,11.994c0,6.618,5.38,12.002,11.994,12.002
		c2.21,0,3.999,1.789,3.999,3.998C23.99,274.087,22.2,275.875,19.99,275.875z"/>
	<path style="fill:#3A3847;" d="M11.994,231.895c-2.21,0-3.998-1.788-3.998-3.998c0-121.253,98.65-219.899,219.899-219.899
		c2.21,0,3.998,1.789,3.998,3.998c0,2.21-1.788,3.999-3.998,3.999c-116.845,0-211.903,95.058-211.903,211.903
		C15.992,230.107,14.204,231.895,11.994,231.895z"/>
	<path style="fill:#3A3847;" d="M27.987,231.895c-2.209,0-3.998-1.788-3.998-3.998c0-112.433,91.474-203.906,203.907-203.906
		c2.21,0,3.998,1.788,3.998,3.998s-1.788,3.998-3.998,3.998c-108.029,0-195.91,87.886-195.91,195.91
		C31.986,230.107,30.197,231.895,27.987,231.895z"/>
	<path style="fill:#3A3847;" d="M176.154,38.804c-1.765,0-3.381-1.18-3.865-2.964l-4.139-15.454
		c-0.57-2.132,0.695-4.326,2.834-4.896c2.124-0.57,4.318,0.695,4.896,2.827l4.139,15.454c0.57,2.132-0.694,4.326-2.834,4.896
		C176.841,38.761,176.497,38.804,176.154,38.804z"/>
	<path style="fill:#3A3847;" d="M127.943,58.779c-1.382,0-2.726-0.718-3.46-2l-7.996-13.86c-1.108-1.913-0.453-4.357,1.46-5.462
		c1.913-1.109,4.357-0.449,5.458,1.464l7.996,13.86c1.109,1.913,0.453,4.357-1.46,5.463
		C129.309,58.607,128.622,58.779,127.943,58.779z"/>
	<path style="fill:#3A3847;" d="M86.538,90.546c-1.022,0-2.046-0.39-2.827-1.171L72.405,78.059c-1.562-1.562-1.562-4.096,0-5.654
		c1.562-1.562,4.092-1.562,5.653,0L89.366,83.72c1.562,1.562,1.562,4.096,0,5.653C88.584,90.155,87.563,90.546,86.538,90.546z"/>
	<path style="fill:#3A3847;" d="M54.772,131.948c-0.68,0-1.366-0.172-1.999-0.535l-13.853-8.004
		c-1.914-1.104-2.569-3.553-1.46-5.462c1.109-1.917,3.545-2.558,5.458-1.465l13.853,8.004c1.913,1.105,2.569,3.553,1.46,5.462
		C57.489,131.234,56.146,131.948,54.772,131.948z"/>
	<path style="fill:#3A3847;" d="M34.805,180.161c-0.344,0-0.687-0.043-1.039-0.137l-15.454-4.146
		c-2.132-0.574-3.396-2.764-2.827-4.896c0.578-2.132,2.756-3.385,4.904-2.827l15.454,4.146c2.132,0.574,3.396,2.765,2.827,4.896
		C38.187,178.986,36.569,180.161,34.805,180.161z"/>
	<path style="fill:#3A3847;" d="M491.776,275.875c-2.21,0-3.998-1.788-3.998-3.999c0-2.209,1.788-3.998,3.998-3.998
		c6.614,0,11.994-5.38,11.994-11.994s-5.38-11.994-11.994-11.994c-2.21,0-3.998-1.789-3.998-3.999s1.788-3.998,3.998-3.998
		c11.026,0,19.991,8.968,19.991,19.991C511.766,266.91,502.802,275.875,491.776,275.875z"/>
	<path style="fill:#3A3847;" d="M499.771,231.895c-2.209,0-3.998-1.788-3.998-3.998c0-116.845-95.058-211.903-211.902-211.903
		c-2.21,0-3.998-1.789-3.998-3.999c0-2.209,1.788-3.998,3.998-3.998c121.249,0,219.898,98.646,219.898,219.899
		C503.769,230.107,501.982,231.895,499.771,231.895z"/>
	<path style="fill:#3A3847;" d="M483.779,231.895c-2.21,0-3.998-1.788-3.998-3.998c0-108.024-87.882-195.91-195.91-195.91
		c-2.21,0-3.998-1.788-3.998-3.998s1.788-3.998,3.998-3.998c112.433,0,203.906,91.474,203.906,203.906
		C487.778,230.107,485.989,231.895,483.779,231.895z"/>
	<path style="fill:#3A3847;" d="M476.961,180.153c-1.765,0-3.381-1.179-3.865-2.963c-0.57-2.132,0.695-4.326,2.835-4.896
		l15.453-4.139c2.109-0.566,4.318,0.695,4.896,2.827c0.57,2.132-0.695,4.326-2.834,4.896l-15.454,4.139
		C477.649,180.11,477.305,180.153,476.961,180.153z"/>
	<path style="fill:#3A3847;" d="M456.993,131.941c-1.374,0-2.725-0.718-3.459-1.999c-1.108-1.913-0.453-4.357,1.461-5.462
		l13.853-7.997c1.897-1.104,4.357-0.449,5.458,1.465c1.109,1.913,0.453,4.357-1.46,5.462l-13.853,7.997
		C458.362,131.769,457.674,131.941,456.993,131.941z"/>
	<path style="fill:#3A3847;" d="M425.221,90.538c-1.023,0-2.047-0.39-2.827-1.171c-1.562-1.562-1.562-4.096,0-5.653l11.315-11.308
		c1.562-1.562,4.092-1.562,5.653,0c1.561,1.562,1.562,4.096,0,5.654l-11.315,11.307C427.266,90.148,426.242,90.538,425.221,90.538z"
		/>
	<path style="fill:#3A3847;" d="M383.818,58.771c-0.68,0-1.366-0.172-1.999-0.535c-1.913-1.105-2.569-3.554-1.461-5.463
		l8.005-13.853c1.108-1.914,3.553-2.554,5.458-1.464c1.913,1.105,2.569,3.553,1.461,5.462l-8.005,13.853
		C386.534,58.057,385.192,58.771,383.818,58.771z"/>
	<path style="fill:#3A3847;" d="M335.605,38.804c-0.344,0-0.688-0.043-1.039-0.137c-2.132-0.574-3.396-2.765-2.827-4.896
		l4.146-15.454c0.578-2.132,2.765-3.389,4.904-2.827c2.132,0.574,3.397,2.764,2.827,4.896L339.47,35.84
		C338.987,37.628,337.368,38.804,335.605,38.804z"/>
	<path style="fill:#3A3847;" d="M255.891,511.767c-11.026,0-19.991-8.965-19.991-19.99c0-2.211,1.788-3.999,3.998-3.999
		s3.999,1.788,3.999,3.999c0,6.613,5.38,11.994,11.995,11.994s11.994-5.381,11.994-11.994c0-2.211,1.788-3.999,3.998-3.999
		c2.21,0,3.999,1.788,3.999,3.999C275.883,502.802,266.917,511.767,255.891,511.767z"/>
	<path style="fill:#3A3847;" d="M283.878,503.771c-2.21,0-3.998-1.788-3.998-3.998s1.788-3.998,3.998-3.998
		c116.845,0,211.902-95.059,211.902-211.903c0-2.21,1.789-3.998,3.998-3.998c2.211,0,3.998,1.788,3.998,3.998
		C503.778,405.128,405.128,503.771,283.878,503.771z"/>
	<path style="fill:#3A3847;" d="M283.878,487.778c-2.21,0-3.998-1.788-3.998-3.998s1.788-3.998,3.998-3.998
		c108.028,0,195.91-87.882,195.91-195.91c0-2.21,1.788-3.998,3.998-3.998c2.21,0,3.998,1.788,3.998,3.998
		C487.784,396.304,396.312,487.778,283.878,487.778z"/>
	<path style="fill:#3A3847;" d="M339.76,496.414c-1.766,0-3.382-1.179-3.866-2.967l-4.139-15.462
		c-0.569-2.132,0.695-4.326,2.835-4.889c2.155-0.594,4.318,0.703,4.896,2.827l4.139,15.462c0.57,2.132-0.695,4.326-2.835,4.888
		C340.445,496.367,340.094,496.414,339.76,496.414z"/>
	<path style="fill:#3A3847;" d="M391.828,474.847c-1.382,0-2.726-0.719-3.459-2l-7.997-13.86c-1.108-1.913-0.452-4.357,1.461-5.458
		c1.913-1.109,4.365-0.453,5.458,1.46l7.997,13.86c1.108,1.913,0.452,4.357-1.461,5.467
		C393.195,474.675,392.508,474.847,391.828,474.847z"/>
	<path style="fill:#3A3847;" d="M436.542,440.534c-1.023,0-2.046-0.391-2.826-1.172l-11.308-11.323
		c-1.562-1.562-1.562-4.092,0-5.653s4.092-1.562,5.653,0l11.308,11.323c1.562,1.562,1.562,4.092,0,5.653
		C438.589,440.144,437.567,440.534,436.542,440.534z"/>
	<path style="fill:#3A3847;" d="M470.855,395.82c-0.68,0-1.374-0.172-1.999-0.538l-13.853-8.013
		c-1.914-1.101-2.569-3.553-1.461-5.458c1.109-1.921,3.576-2.562,5.459-1.46l13.853,8.012c1.913,1.102,2.569,3.553,1.46,5.459
		C473.573,395.102,472.23,395.82,470.855,395.82z"/>
	<path style="fill:#3A3847;" d="M492.424,343.75c-0.344,0-0.688-0.047-1.039-0.141l-15.453-4.154
		c-2.132-0.57-3.397-2.765-2.819-4.896c0.57-2.132,2.749-3.396,4.896-2.819l15.454,4.154c2.131,0.57,3.396,2.765,2.818,4.896
		C495.805,342.579,494.188,343.75,492.424,343.75z"/>
	<path style="fill:#3A3847;" d="M227.904,503.771c-121.249,0-219.899-98.643-219.899-219.899c0-2.21,1.788-3.998,3.998-3.998
		s3.998,1.788,3.998,3.998c0,116.845,95.059,211.903,211.903,211.903c2.21,0,3.998,1.788,3.998,3.998
		S230.113,503.771,227.904,503.771z"/>
	<path style="fill:#3A3847;" d="M227.904,487.778c-112.433,0-203.907-91.474-203.907-203.906c0-2.21,1.789-3.998,3.998-3.998
		c2.21,0,3.999,1.788,3.999,3.998c0,108.028,87.881,195.91,195.91,195.91c2.21,0,3.998,1.788,3.998,3.998
		S230.113,487.778,227.904,487.778z"/>
	<path style="fill:#3A3847;" d="M19.359,343.75c-1.765,0-3.382-1.171-3.866-2.968c-0.57-2.124,0.695-4.326,2.827-4.889l15.446-4.139
		c2.155-0.577,4.326,0.688,4.904,2.827c0.57,2.124-0.695,4.326-2.827,4.889l-15.446,4.139
		C20.045,343.703,19.702,343.75,19.359,343.75z"/>
	<path style="fill:#3A3847;" d="M40.926,395.82c-1.375,0-2.725-0.718-3.459-1.998c-1.108-1.914-0.453-4.357,1.46-5.467l13.853-7.996
		c1.905-1.094,4.357-0.453,5.458,1.468c1.109,1.913,0.453,4.357-1.46,5.466l-13.853,7.997
		C42.293,395.648,41.606,395.82,40.926,395.82z"/>
	<path style="fill:#3A3847;" d="M75.24,440.534c-1.023,0-2.046-0.391-2.827-1.172c-1.562-1.562-1.562-4.092,0-5.653l11.307-11.308
		c1.562-1.562,4.092-1.562,5.654,0s1.562,4.092,0,5.653l-11.308,11.308C77.285,440.144,76.262,440.534,75.24,440.534z"/>
	<path style="fill:#3A3847;" d="M119.953,474.847c-0.679,0-1.367-0.172-1.999-0.531c-1.914-1.109-2.569-3.554-1.46-5.467
		l7.996-13.853c1.102-1.905,3.554-2.562,5.459-1.468c1.913,1.108,2.569,3.553,1.46,5.466l-7.996,13.853
		C122.678,474.128,121.327,474.847,119.953,474.847z"/>
	<path style="fill:#3A3847;" d="M172.023,496.414c-0.336,0-0.687-0.047-1.031-0.141c-2.14-0.562-3.405-2.756-2.834-4.888
		l4.139-15.462c0.578-2.124,2.749-3.421,4.896-2.827c2.14,0.562,3.404,2.757,2.834,4.889l-4.139,15.462
		C175.404,495.236,173.788,496.414,172.023,496.414z"/>
	<path style="fill:#3A3847;" d="M239.891,31.987c-2.21,0-3.998-1.788-3.998-3.998v-7.997c0-2.209,1.788-3.998,3.998-3.998
		s3.999,1.789,3.999,3.998v7.997C243.889,30.198,242.1,31.987,239.891,31.987z"/>
	<path style="fill:#3A3847;" d="M271.875,31.987c-2.21,0-3.998-1.788-3.998-3.998v-7.997c0-2.209,1.788-3.998,3.998-3.998
		c2.21,0,3.999,1.789,3.999,3.998v7.997C275.875,30.198,274.086,31.987,271.875,31.987z"/>
	<path style="fill:#3A3847;" d="M27.995,275.875h-8.004c-2.209,0-3.998-1.788-3.998-3.999c0-2.209,1.789-3.998,3.998-3.998h8.004
		c2.21,0,3.999,1.789,3.999,3.998C31.993,274.087,30.205,275.875,27.995,275.875z"/>
	<path style="fill:#3A3847;" d="M27.995,243.882h-8.004c-2.209,0-3.998-1.789-3.998-3.999s1.789-3.998,3.998-3.998h8.004
		c2.21,0,3.999,1.788,3.999,3.998S30.205,243.882,27.995,243.882z"/>
	<path style="fill:#3A3847;" d="M491.776,243.89h-7.996c-2.21,0-3.998-1.789-3.998-3.999s1.788-3.998,3.998-3.998h7.996
		c2.21,0,3.998,1.788,3.998,3.998S493.985,243.89,491.776,243.89z"/>
	<path style="fill:#3A3847;" d="M491.776,275.875h-7.988c-2.21,0-3.998-1.788-3.998-3.999c0-2.209,1.788-3.998,3.998-3.998h7.988
		c2.21,0,3.998,1.789,3.998,3.998C495.773,274.087,493.985,275.875,491.776,275.875z"/>
	<path style="fill:#3A3847;" d="M271.883,495.775c-2.21,0-3.998-1.789-3.998-3.998v-7.997c0-2.21,1.788-3.998,3.998-3.998
		c2.21,0,3.999,1.788,3.999,3.998v7.997C275.883,493.986,274.094,495.775,271.883,495.775z"/>
	<path style="fill:#3A3847;" d="M239.898,495.775c-2.21,0-3.998-1.789-3.998-3.998v-7.997c0-2.21,1.788-3.998,3.998-3.998
		s3.999,1.788,3.999,3.998v7.997C243.896,493.986,242.109,495.775,239.898,495.775z"/>
	<path style="fill:#3A3847;" d="M171.742,56.725c-1.569,0-3.053-0.929-3.693-2.468c-0.844-2.042,0.125-4.381,2.163-5.224
		c55.256-22.888,116.118-22.896,171.358-0.008c2.039,0.843,3.007,3.182,2.164,5.224c-0.852,2.042-3.21,3.006-5.225,2.163
		C285.243,34.34,226.551,34.348,173.271,56.42C172.773,56.628,172.249,56.725,171.742,56.725z"/>
	<path style="fill:#3A3847;" d="M255.876,479.899c-29.026,0-58.044-5.724-85.664-17.164c-2.038-0.843-3.007-3.187-2.163-5.224
		c0.851-2.047,3.194-2.999,5.224-2.164c53.265,22.076,111.941,22.076,165.237,0c2.046-0.843,4.381,0.133,5.225,2.164
		c0.843,2.045-0.125,4.381-2.164,5.224C313.943,474.175,284.901,479.899,255.876,479.899z"/>
	<path style="fill:#3A3847;" d="M208.46,145.364c-1.569,0-3.061-0.93-3.693-2.472c-0.844-2.038,0.125-4.377,2.163-5.22
		c31.595-13.064,66.367-13.064,97.916,0c2.038,0.843,3.006,3.182,2.163,5.224c-0.852,2.038-3.179,3.014-5.225,2.163
		c-29.572-12.248-62.19-12.24-91.794,0C209.49,145.267,208.967,145.364,208.46,145.364z"/>
	<path style="fill:#3A3847;" d="M255.837,383.88c-16.571,0-33.142-3.264-48.907-9.792c-2.038-0.844-3.007-3.179-2.163-5.225
		c0.851-2.03,3.178-3.015,5.224-2.163c29.581,12.252,62.19,12.221,91.802-0.031c2.046-0.844,4.381,0.133,5.225,2.163
		c0.843,2.046-0.125,4.381-2.163,5.225C289.047,380.609,272.438,383.88,255.837,383.88z"/>
	<path style="fill:#3A3847;" d="M303.315,145.364c-0.515,0-1.03-0.098-1.53-0.305c-2.038-0.844-3.006-3.182-2.163-5.224
		l36.726-88.647c0.852-2.046,3.202-2.999,5.224-2.163c2.039,0.843,3.007,3.182,2.164,5.224l-36.726,88.647
		C306.367,144.435,304.885,145.364,303.315,145.364z"/>
	<path style="fill:#3A3847;" d="M171.742,463.039c-0.507,0-1.03-0.094-1.53-0.305c-2.038-0.843-3.007-3.179-2.163-5.224
		l36.718-88.647c0.851-2.03,3.178-3.015,5.224-2.163c2.038,0.844,3.007,3.178,2.163,5.225l-36.717,88.646
		C174.796,462.11,173.311,463.039,171.742,463.039z"/>
	<path style="fill:#3A3847;" d="M208.46,145.364c-1.569,0-3.053-0.93-3.693-2.468l-36.718-88.639
		c-0.844-2.042,0.125-4.381,2.163-5.224c2.062-0.839,4.381,0.129,5.224,2.163l36.717,88.639c0.844,2.042-0.125,4.38-2.163,5.224
		C209.49,145.267,208.967,145.364,208.46,145.364z"/>
	<path style="fill:#3A3847;" d="M340.039,463.039c-1.569,0-3.053-0.93-3.693-2.468l-36.726-88.654
		c-0.843-2.039,0.125-4.381,2.163-5.225c2.054-0.836,4.381,0.125,5.225,2.163l36.726,88.655c0.843,2.045-0.125,4.381-2.164,5.224
		C341.071,462.946,340.547,463.039,340.039,463.039z"/>
	<path style="fill:#3A3847;" d="M52.735,344.031c-1.569,0-3.053-0.93-3.693-2.468c-22.888-55.256-22.896-116.119-0.008-171.367
		c0.851-2.042,3.193-3.006,5.224-2.163c2.038,0.844,3.007,3.183,2.163,5.225c-22.068,53.272-22.068,111.956,0.008,165.244
		c0.844,2.046-0.125,4.381-2.163,5.225C53.764,343.938,53.242,344.031,52.735,344.031z"/>
	<path style="fill:#3A3847;" d="M459.049,344.031c-0.516,0-1.031-0.094-1.531-0.305c-2.038-0.844-3.006-3.187-2.163-5.225
		c22.068-53.265,22.068-111.948,0-165.244c-0.843-2.042,0.125-4.381,2.163-5.225c2.062-0.835,4.381,0.133,5.225,2.163
		c22.888,55.271,22.888,116.127,0,171.367C462.102,343.102,460.617,344.031,459.049,344.031z"/>
	<path style="fill:#3A3847;" d="M141.374,307.314c-1.57,0-3.061-0.93-3.694-2.468c-13.064-31.595-13.064-66.368,0-97.916
		c0.852-2.034,3.179-2.999,5.225-2.163c2.038,0.843,3.006,3.182,2.163,5.224c-12.245,29.577-12.245,62.174,0,91.793
		c0.843,2.047-0.125,4.381-2.163,5.225C142.404,307.22,141.88,307.314,141.374,307.314z"/>
	<path style="fill:#3A3847;" d="M370.401,307.314c-0.508,0-1.03-0.094-1.53-0.305c-2.038-0.844-3.007-3.178-2.163-5.225
		c12.244-29.58,12.236-62.189-0.031-91.809c-0.844-2.042,0.125-4.381,2.163-5.224c2.062-0.832,4.381,0.133,5.225,2.163
		c13.087,31.591,13.095,66.368,0.03,97.932C373.455,306.384,371.971,307.314,370.401,307.314z"/>
	<path style="fill:#3A3847;" d="M141.374,212.459c-0.515,0-1.031-0.098-1.531-0.305l-88.646-36.733
		c-2.038-0.844-3.007-3.187-2.163-5.225c0.851-2.042,3.193-3.006,5.224-2.163l88.647,36.733c2.038,0.843,3.006,3.186,2.163,5.224
		C144.426,211.53,142.943,212.459,141.374,212.459z"/>
	<path style="fill:#3A3847;" d="M459.049,344.031c-0.516,0-1.031-0.094-1.531-0.305l-88.646-36.718
		c-2.038-0.844-3.007-3.178-2.163-5.225c0.851-2.045,3.193-2.998,5.224-2.162l88.647,36.717c2.038,0.844,3.007,3.179,2.163,5.225
		C462.102,343.102,460.617,344.031,459.049,344.031z"/>
	<path style="fill:#3A3847;" d="M52.735,344.031c-1.569,0-3.053-0.93-3.693-2.468c-0.844-2.046,0.125-4.381,2.163-5.225
		l88.639-36.717c2.054-0.836,4.381,0.133,5.225,2.162c0.843,2.047-0.125,4.381-2.163,5.225l-88.64,36.718
		C53.764,343.938,53.242,344.031,52.735,344.031z"/>
	<path style="fill:#3A3847;" d="M370.393,212.459c-1.569,0-3.054-0.929-3.693-2.468c-0.844-2.038,0.125-4.381,2.163-5.224
		l88.654-36.733c2.062-0.835,4.381,0.133,5.225,2.163c0.844,2.038-0.125,4.381-2.163,5.225l-88.656,36.732
		C371.424,212.361,370.901,212.459,370.393,212.459z"/>
</g>
<g>
</g>
<g>
</g>
<g>
</g>
<g>
</g>
<g>
</g>
<g>
</g>
<g>
</g>
<g>
</g>
<g>
</g>
<g>
</g>
<g>
</g>
<g>
</g>
<g>
</g>
<g>
</g>
<g>
</g>
</svg>
