<?xml version="1.0" encoding="UTF-8"?>
<svg xmlns="http://www.w3.org/2000/svg" xmlns:xlink="http://www.w3.org/1999/xlink" width="35pt" height="35pt" viewBox="0 0 35 35" version="1.1">
<g id="surface1">
<path style=" stroke:none;fill-rule:nonzero;fill:rgb(93.333333%,21.960784%,25.098039%);fill-opacity:1;" d="M 30.476562 13.769531 C 30.476562 24.160156 18.746094 33.785156 18.746094 33.785156 C 18.0625 34.347656 16.9375 34.347656 16.253906 33.785156 C 16.253906 33.785156 4.523438 24.160156 4.523438 13.769531 C 4.523438 6.601562 10.332031 0.792969 17.5 0.792969 C 24.667969 0.792969 30.476562 6.601562 30.476562 13.769531 Z M 30.476562 13.769531 "/>
<path style=" stroke:none;fill-rule:nonzero;fill:rgb(100%,88.235294%,83.921569%);fill-opacity:1;" d="M 17.5 20.296875 C 13.898438 20.296875 10.972656 17.371094 10.972656 13.769531 C 10.972656 10.167969 13.898438 7.238281 17.5 7.238281 C 21.101562 7.238281 24.027344 10.167969 24.027344 13.769531 C 24.027344 17.371094 21.101562 20.296875 17.5 20.296875 Z M 17.5 20.296875 "/>
<path style=" stroke:none;fill-rule:nonzero;fill:rgb(6.666667%,6.666667%,24.705882%);fill-opacity:1;" d="M 17.5 0 C 9.90625 0 3.730469 6.175781 3.730469 13.769531 C 3.730469 16.253906 4.371094 18.894531 5.636719 21.613281 C 6.636719 23.761719 8.027344 25.964844 9.765625 28.164062 C 12.71875 31.894531 15.628906 34.296875 15.75 34.398438 C 16.242188 34.800781 16.871094 35 17.5 35 C 18.128906 35 18.757812 34.800781 19.25 34.398438 C 19.371094 34.296875 22.28125 31.894531 25.234375 28.164062 C 26.972656 25.964844 28.363281 23.761719 29.363281 21.613281 C 30.628906 18.894531 31.269531 16.253906 31.269531 13.769531 C 31.269531 6.175781 25.09375 0 17.5 0 Z M 24.011719 27.15625 C 21.164062 30.757812 18.273438 33.148438 18.242188 33.171875 C 17.847656 33.496094 17.152344 33.496094 16.757812 33.171875 C 16.726562 33.148438 13.835938 30.757812 10.988281 27.15625 C 8.398438 23.882812 5.3125 18.898438 5.3125 13.769531 C 5.3125 7.050781 10.78125 1.582031 17.5 1.582031 C 24.21875 1.582031 29.683594 7.050781 29.683594 13.769531 C 29.683594 18.898438 26.601562 23.882812 24.011719 27.15625 Z M 24.011719 27.15625 "/>
<path style=" stroke:none;fill-rule:nonzero;fill:rgb(6.666667%,6.666667%,24.705882%);fill-opacity:1;" d="M 17.5 6.449219 C 13.464844 6.449219 10.179688 9.734375 10.179688 13.769531 C 10.179688 17.804688 13.464844 21.089844 17.5 21.089844 C 21.535156 21.089844 24.820312 17.804688 24.820312 13.769531 C 24.820312 9.734375 21.535156 6.449219 17.5 6.449219 Z M 17.5 19.507812 C 14.335938 19.507812 11.761719 16.933594 11.761719 13.769531 C 11.761719 10.605469 14.335938 8.03125 17.5 8.03125 C 20.664062 8.03125 23.238281 10.605469 23.238281 13.769531 C 23.238281 16.933594 20.664062 19.507812 17.5 19.507812 Z M 17.5 19.507812 "/>
</g>
</svg>
