<svg height="422pt" viewBox="0 0 422 422.36073" width="422pt" xmlns="http://www.w3.org/2000/svg"><path d="m177.925781 36.707031c-29.214843-29.214843-70.675781-37.957031-109.128906-22.144531l53.550781 53.550781-10.171875 44.089844-44.09375 10.171875-53.550781-53.546875c-15.8125 38.453125-6.019531 82.113281 23.195312 111.332031 27.941407 27.941406 62.515626 32.722656 103.722657 27.691406l-.082031.085938 157.171874 143.003906c-1.722656 16.933594 3.886719 34.472656 16.863282 47.449219 22.90625 22.90625 60.046875 22.90625 82.953125 0 22.90625-22.910156 22.90625-60.050781 0-82.957031-14.515625-14.515625-34.746094-19.800782-53.445313-15.917969l-142.378906-156.28125c12.941406-35.820313 4.390625-77.53125-24.605469-106.527344zm197.378907 338.628907c-9.675782 9.675781-25.367188 9.675781-35.046876 0-9.679687-9.675782-9.679687-25.367188 0-35.046876 9.675782-9.683593 25.367188-9.679687 35.046876 0 9.675781 9.679688 9.675781 25.371094 0 35.046876zm0 0" fill="#ffe600"/><path d="m356.878906 422.359375c-16.773437.007813-33.539062-6.378906-46.304687-19.144531-13.140625-13.140625-19.992188-31-19.085938-49.464844l-152.488281-138.742188c-47.375 5.203126-80.1875-4.113281-106.101562-30.019531-31.644532-31.652343-41.332032-78.269531-24.675782-118.753906.867188-2.113281 2.734375-3.652344 4.972656-4.101563 2.246094-.4375 4.550782.253907 6.167969 1.867188l50.871094 50.878906 36.246094-8.363281 8.367187-36.246094-50.878906-50.878906c-1.617188-1.617187-2.316406-3.925781-1.867188-6.167969.445313-2.242187 1.984376-4.105468 4.097657-4.972656 40.613281-16.703125 85.28125-7.65625 116.554687 23.632812 29.011719 29.011719 39.59375 71.660157 27.53125 109.730469l137.140625 150.527344c20.453125-2.992187 41.058594 3.769531 55.753907 18.46875 12.371093 12.367187 19.183593 28.8125 19.183593 46.304687 0 17.484376-6.8125 33.929688-19.183593 46.296876-12.765626 12.769531-29.535157 19.148437-46.300782 19.148437zm-209.996094-218.636719 156.25 142.171875c1.601563 1.453125 2.421876 3.589844 2.203126 5.742188-1.59375 15.585937 3.839843 30.875 14.890624 41.925781 20.207032 20.207031 53.082032 20.21875 73.300782 0 9.792968-9.792969 15.1875-22.808594 15.1875-36.644531 0-13.847657-5.394532-26.859375-15.1875-36.652344-12.371094-12.375-30-17.660156-47.230469-14.0625-2.367187.484375-4.816406-.304687-6.4375-2.082031l-142.371094-156.285156c-1.707031-1.875-2.234375-4.539063-1.375-6.917969 12.3125-34.078125 3.28125-73.085938-23.011719-99.378907-24.785156-24.773437-59.164062-33.585937-91.804687-24.125l45.878906 45.878907c1.664063 1.664062 2.351563 4.0625 1.828125 6.359375l-10.171875 44.09375c-.589843 2.542968-2.574219 4.53125-5.121093 5.117187l-44.09375 10.171875c-2.273438.507813-4.695313-.160156-6.359376-1.824218l-45.859374-45.855469c-9.363282 32.875-.019532 68.796875 25.152343 93.980469 23.5625 23.558593 52.886719 31.257812 98.066407 25.746093 2.488281-.339843 4.824218.738281 6.265624 2.640625zm210.898438 185.699219c-8.449219 0-16.382812-3.285156-22.347656-9.261719-5.972656-5.972656-9.261719-13.90625-9.261719-22.34375 0-8.449218 3.289063-16.382812 9.261719-22.355468 12.320312-12.320313 32.367187-12.320313 44.703125 0 12.316406 12.324218 12.316406 32.378906 0 44.699218-5.976563 5.976563-13.90625 9.261719-22.355469 9.261719zm0-49.554687c-4.59375 0-9.191406 1.746093-12.695312 5.246093-3.390626 3.394531-5.257813 7.898438-5.257813 12.703125 0 4.789063 1.867187 9.300782 5.257813 12.691406 6.785156 6.785157 18.605468 6.78125 25.390624 0 7.003907-7 7.003907-18.394531 0-25.390624-3.496093-3.503907-8.09375-5.25-12.695312-5.25zm0 0" fill="#602f75"/><path d="m192.722656 192.757812 27.132813-27.132812" fill="#fff"/><path d="m192.722656 199.582031c-1.746094 0-3.492187-.664062-4.828125-2-2.664062-2.664062-2.664062-6.988281 0-9.652343l27.132813-27.132813c2.667968-2.664063 6.988281-2.664063 9.652344 0 2.667968 2.664063 2.667968 6.988281 0 9.652344l-27.132813 27.132812c-1.332031 1.332031-3.082031 2-4.824219 2zm0 0" fill="#602f75"/><path d="m224.378906 224.410156 27.132813-27.132812" fill="#fff"/><path d="m224.382812 231.234375c-1.75 0-3.492187-.664063-4.828124-2-2.664063-2.664063-2.664063-6.988281 0-9.652344l27.132812-27.132812c2.664062-2.667969 6.988281-2.667969 9.652344 0 2.664062 2.664062 2.664062 6.988281 0 9.652343l-27.132813 27.132813c-1.335937 1.335937-3.078125 2-4.824219 2zm0 0" fill="#602f75"/><path d="m256.03125 256.066406 22.613281-22.613281" fill="#fff"/><path d="m256.03125 262.898438c-1.746094 0-3.492188-.667969-4.824219-2.003907-2.667969-2.664062-2.667969-6.984375 0-9.652343l22.605469-22.613282c2.667969-2.664062 6.988281-2.664062 9.652344 0 2.667968 2.667969 2.667968 6.988282 0 9.652344l-22.605469 22.613281c-1.332031 1.332031-3.078125 2.003907-4.828125 2.003907zm0 0" fill="#602f75"/><path d="m122.410156 68.050781 7.421875-23.957031" fill="#fff"/><path d="m122.414062 74.875c-.664062 0-1.347656-.097656-2.019531-.304688-3.601562-1.113281-5.617187-4.941406-4.5-8.542968l7.421875-23.953125c1.113282-3.601563 4.925782-5.617188 8.539063-4.5 3.601562 1.113281 5.613281 4.941406 4.5 8.542969l-7.421875 23.953124c-.90625 2.925782-3.609375 4.804688-6.519532 4.804688zm0 0" fill="#602f75"/><path d="m66.441406 124.019531-23.953125 7.417969" fill="#fff"/><path d="m42.488281 138.269531c-2.914062 0-5.617187-1.882812-6.519531-4.804687-1.113281-3.601563.902344-7.429688 4.5-8.542969l23.953125-7.417969c3.625-1.101562 7.425781.90625 8.539063 4.496094 1.113281 3.601562-.898438 7.429688-4.496094 8.542969l-23.957032 7.417969c-.675781.210937-1.355468.308593-2.019531.308593zm0 0" fill="#602f75"/><path d="m179.769531 145.621094c0 18.851562-15.28125 34.132812-34.132812 34.132812-18.851563 0-34.132813-15.28125-34.132813-34.132812 0-18.851563 15.28125-34.132813 34.132813-34.132813 18.851562 0 34.132812 15.28125 34.132812 34.132813zm0 0" fill="#ea3457"/><g fill="#00e7ff"><path d="m254.617188 142.207031 24.132812-24.132812 24.136719 24.132812-24.136719 24.136719zm0 0"/><path d="m165.867188 347.007812 24.136718-24.136718 24.136719 24.136718-24.136719 24.132813zm0 0"/></g></svg>