<svg height="496pt" viewBox="0 0 496 496" width="496pt" xmlns="http://www.w3.org/2000/svg"><path d="m312 488h-128c-13.257812 0-24-10.742188-24-24s10.742188-24 24-24h128c13.257812 0 24 10.742188 24 24s-10.742188 24-24 24zm0 0" fill="#f15a24"/><path d="m312 464c0-13.257812-10.742188-24-24-24h-104c-13.257812 0-24 10.742188-24 24s10.742188 24 24 24h104c13.257812 0 24-10.742188 24-24zm0 0" fill="#f7931e"/><path d="m280 88h-64v-16c0-17.671875 14.328125-32 32-32s32 14.328125 32 32zm0 0" fill="#a61420"/><path d="m236 42.375c-11.71875 4.753906-20 16.199219-20 29.625v16h40v-16c0-13.425781-8.28125-24.871094-20-29.625zm0 0" fill="#d93240"/><path d="m200 88h96v32h-96zm0 0" fill="#0c0c0c"/><path d="m200 88h72v32h-72zm0 0" fill="#3f3f3f"/><path d="m408 88h48v32h-48zm0 0" fill="#452f22"/><path d="m408 88h24v32h-24zm0 0" fill="#916447"/><path d="m40 88h48v32h-48zm0 0" fill="#452f22"/><path d="m40 88h24v32h-24zm0 0" fill="#916447"/><path d="m408 328h48v160h-48zm0 0" fill="#452f22"/><path d="m408 328h24v160h-24zm0 0" fill="#916447"/><path d="m40 328h48v160h-48zm0 0" fill="#452f22"/><path d="m40 328h24v160h-24zm0 0" fill="#916447"/><path d="m272 328h216v-208h-480v208h216" fill="#d19067"/><path d="m88 496h-48c-4.414062 0-8-3.574219-8-8v-160c0-4.425781 3.585938-8 8-8h48c4.414062 0 8 3.574219 8 8v160c0 4.425781-3.585938 8-8 8zm-40-16h32v-144h-32zm0 0"/><path d="m456 496h-48c-4.414062 0-8-3.574219-8-8v-160c0-4.425781 3.585938-8 8-8h48c4.414062 0 8 3.574219 8 8v160c0 4.425781-3.585938 8-8 8zm-40-16h32v-144h-32zm0 0"/><path d="m88 128h-48c-4.414062 0-8-3.574219-8-8v-32c0-4.425781 3.585938-8 8-8h48c4.414062 0 8 3.574219 8 8v32c0 4.425781-3.585938 8-8 8zm-40-16h32v-16h-32zm0 0"/><path d="m456 128h-48c-4.414062 0-8-3.574219-8-8v-32c0-4.425781 3.585938-8 8-8h48c4.414062 0 8 3.574219 8 8v32c0 4.425781-3.585938 8-8 8zm-40-16h32v-16h-32zm0 0"/><path d="m296 128h-96c-4.414062 0-8-3.574219-8-8v-32c0-4.425781 3.585938-8 8-8h96c4.414062 0 8 3.574219 8 8v32c0 4.425781-3.585938 8-8 8zm-88-16h80v-16h-80zm0 0"/><path d="m280 96h-64c-4.414062 0-8-3.574219-8-8v-16c0-22.054688 17.945312-40 40-40s40 17.945312 40 40v16c0 4.425781-3.585938 8-8 8zm-56-16h48v-8c0-13.230469-10.769531-24-24-24s-24 10.769531-24 24zm0 0"/><path d="m240 0h16v16h-16zm0 0"/><path d="m282.34375 18.34375 15.996094-15.996094 11.3125 11.3125-15.996094 15.996094zm0 0"/><path d="m186.34375 13.660156 11.3125-11.3125 15.996094 15.996094-11.3125 11.3125zm0 0"/><path d="m259.640625 296h196.359375v-144h-416v144h196.359375" fill="#f3aa00"/><path d="m312 440-64-176-64 176zm0 0" fill="#f15a24"/><path d="m184 440h104l-52-143zm0 0" fill="#f7931e"/><path d="m488 336h-216v-16h208v-192h-464v192h208v16h-216c-4.414062 0-8-3.574219-8-8v-208c0-4.425781 3.585938-8 8-8h480c4.414062 0 8 3.574219 8 8v208c0 4.425781-3.585938 8-8 8zm0 0"/><path d="m40 448h48v16h-48zm0 0"/><path d="m408 448h48v16h-48zm0 0"/><path d="m34.339844 157.65625 11.316406-11.3125 143.996094 144-11.3125 11.3125zm0 0"/><path d="m34.339844 237.65625 11.3125-11.316406 64.003906 64.003906-11.316406 11.3125zm0 0"/><path d="m456 304h-196.359375v-16h188.359375v-128h-400v128h188.359375v16h-196.359375c-4.414062 0-8-3.574219-8-8v-144c0-4.425781 3.585938-8 8-8h416c4.414062 0 8 3.574219 8 8v144c0 4.425781-3.585938 8-8 8zm0 0"/><path d="m106.339844 157.660156 11.316406-11.316406 129.601562 129.605469-11.3125 11.3125zm0 0"/><path d="m250.339844 157.65625 11.3125-11.3125 144 144-11.3125 11.3125zm0 0"/><path d="m322.339844 157.65625 11.3125-11.3125 127.996094 127.996094-11.3125 11.3125zm0 0"/><path d="m386.339844 157.65625 11.3125-11.3125 64 64-11.3125 11.316406zm0 0"/><path d="m178.339844 157.65625 11.3125-11.3125 144 144-11.3125 11.3125zm0 0"/><path d="m201.457031 392h93.085938l-17.453125-48h-58.179688zm0 0" fill="#fff"/><path d="m312 496h-128c-17.648438 0-32-14.351562-32-32s14.351562-32 32-32h128c17.648438 0 32 14.351562 32 32s-14.351562 32-32 32zm-128-48c-8.824219 0-16 7.175781-16 16s7.175781 16 16 16h128c8.824219 0 16-7.175781 16-16s-7.175781-16-16-16zm0 0"/><path d="m312 496h-128c-17.648438 0-32-14.351562-32-32s14.351562-32 32-32h128c17.648438 0 32 14.351562 32 32s-14.351562 32-32 32zm-128-48c-8.824219 0-16 7.175781-16 16s7.175781 16 16 16h128c8.824219 0 16-7.175781 16-16s-7.175781-16-16-16zm0 0"/><path d="m304.480469 442.734375-56.480469-155.328125-56.480469 155.328125-15.039062-5.46875 64-176c1.152343-3.160156 4.160156-5.265625 7.519531-5.265625s6.367188 2.105469 7.519531 5.265625l64 176zm0 0"/><path d="m200 384h96v16h-96zm0 0"/><path d="m216 336h64v16h-64zm0 0"/></svg>