<svg height="512" viewBox="0 0 64 64" width="512" xmlns="http://www.w3.org/2000/svg"><g id="Help"><circle cx="32" cy="32" fill="#1e81ce" r="29"/><circle cx="32" cy="32" fill="#ffcd00" r="23"/><path d="m32 55a22.994 22.994 0 0 0 12.852-42.065l-28.624 35.78a22.905 22.905 0 0 0 15.772 6.285z" fill="#ddb200"/><path d="m48.613 8.234-3.761 4.7a22.989 22.989 0 1 1 -28.624 35.78l-3.77 4.713a29 29 0 1 0 36.155-45.193z" fill="#1a6fb0"/><path d="m32.431 15.008a11 11 0 0 0 -9.711 16.9 1.99 1.99 0 0 0 3.075.293 2.009 2.009 0 0 0 .262-2.494 7 7 0 1 1 7.939 3l-.291.084a5.126 5.126 0 0 0 -3.705 4.93v3.279a2 2 0 0 0 4 0v-2.631a2.022 2.022 0 0 1 1.423-1.911 11 11 0 0 0 -2.992-21.45z" fill="#ff3051"/><circle cx="32" cy="49" fill="#ff3051" r="2"/><path d="m32 62a30 30 0 1 1 30-30 30.034 30.034 0 0 1 -30 30zm0-58a28 28 0 1 0 28 28 28.032 28.032 0 0 0 -28-28z"/><path d="m32 56a24 24 0 1 1 24-24 24.028 24.028 0 0 1 -24 24zm0-46a22 22 0 1 0 22 22 22.025 22.025 0 0 0 -22-22z"/><path d="m32 44a3 3 0 0 1 -3-3v-3.279a6.153 6.153 0 0 1 4.434-5.888l.29-.084a6.027 6.027 0 0 0 4.176-6.891 5.96 5.96 0 0 0 -4.664-4.735 6.005 6.005 0 0 0 -6.324 9.054 3 3 0 0 1 -.4 3.732l-.03.029a2.994 2.994 0 0 1 -2.444.842 2.916 2.916 0 0 1 -2.155-1.329 12 12 0 0 1 10.586-18.442 12.127 12.127 0 0 1 11.493 11.02 11.987 11.987 0 0 1 -8.229 12.379 1.028 1.028 0 0 0 -.733.96v2.632a3 3 0 0 1 -3 3zm.014-26a8.3 8.3 0 0 1 1.609.159 8 8 0 0 1 .662 15.507l-.3.086a4.147 4.147 0 0 0 -2.985 3.969v3.279a1 1 0 0 0 2 0v-2.631a3.023 3.023 0 0 1 2.112-2.861 9.993 9.993 0 0 0 6.856-10.322 10.1 10.1 0 0 0 -9.575-9.178 10.006 10.006 0 0 0 -8.831 15.367.922.922 0 0 0 .687.417 1.014 1.014 0 0 0 .839-.294l.02-.02a1.011 1.011 0 0 0 .105-1.24 8 8 0 0 1 6.801-12.238z"/><path d="m32 52a3 3 0 1 1 3-3 3 3 0 0 1 -3 3zm0-4a1 1 0 1 0 1 1 1 1 0 0 0 -1-1z"/></g></svg>