<svg height="464pt" viewBox="0 0 464 464" width="464pt" xmlns="http://www.w3.org/2000/svg"><g fill="#ff6243"><path d="m80 144h80l80-112h-88l-80 112zm0 0"/><path d="m456 32h-8l-80 112h88c4.417969 0 8-3.582031 8-8v-96c0-4.417969-3.582031-8-8-8zm0 0"/><path d="m304 144 80-112h-80l-80 112zm0 0"/><path d="m80 32h-72c-4.417969 0-8 3.582031-8 8v96c0 4.417969 3.582031 8 8 8l80-112zm0 0"/><path d="m384 304h72c4.417969 0 8-3.582031 8-8v-96c0-4.417969-3.582031-8-8-8h-8l-80 112zm0 0"/><path d="m152 192-80 112h88l80-112zm0 0"/><path d="m304 192-80 112h80l80-112zm0 0"/><path d="m80 192h-72c-4.417969 0-8 3.582031-8 8v96c0 4.417969 3.582031 8 8 8l80-112zm0 0"/></g><path d="m80 8c0-4.417969-3.582031-8-8-8h-16c-4.417969 0-8 3.582031-8 8v24h32zm0 0" fill="#898890"/><path d="m80 144h-32v48h32zm0 0" fill="#898890"/><path d="m48 304v128h32v-128zm0 0" fill="#898890"/><path d="m24 432c-4.417969 0-8 3.582031-8 8v16c0 4.417969 3.582031 8 8 8h80c4.417969 0 8-3.582031 8-8v-16c0-4.417969-3.582031-8-8-8zm0 0" fill="#787680"/><path d="m416 8c0-4.417969-3.582031-8-8-8h-16c-4.417969 0-8 3.582031-8 8v24h32zm0 0" fill="#898890"/><path d="m384 144h32v48h-32zm0 0" fill="#898890"/><path d="m384 304h32v128h-32zm0 0" fill="#898890"/><path d="m360 432c-4.417969 0-8 3.582031-8 8v16c0 4.417969 3.582031 8 8 8h80c4.417969 0 8-3.582031 8-8v-16c0-4.417969-3.582031-8-8-8zm0 0" fill="#787680"/><path d="m152 32h-64l-80 112h64zm0 0" fill="#d8d7da"/><path d="m224 144 80-112h-64l-80 112zm0 0" fill="#d8d7da"/><path d="m368 144 80-112h-64l-80 112zm0 0" fill="#d8d7da"/><path d="m152 192h-64l-80 112h64zm0 0" fill="#d8d7da"/><path d="m240 192-80 112h64l80-112zm0 0" fill="#d8d7da"/><path d="m304 304h64l80-112h-64zm0 0" fill="#d8d7da"/><path d="m48 144h32v24h-32zm0 0" fill="#787680"/><path d="m384 144h32v24h-32zm0 0" fill="#787680"/><path d="m48 304h32v24h-32zm0 0" fill="#787680"/><path d="m384 304h32v24h-32zm0 0" fill="#787680"/></svg>